<svg xmlns="http://www.w3.org/2000/svg" width="70.691" height="67.979" viewBox="0 0 70.691 67.979">
    <defs>
        <clipPath id="7pakvsdrra">
            <path data-name="Rectangle 86" style="fill:#4b0858" d="M0 0h39.957v35.128H0z"/>
        </clipPath>
        <clipPath id="1if9e31o8b">
            <path data-name="Rectangle 87" style="fill:#4b0858" d="M0 0h70.691v29.493H0z"/>
        </clipPath>
    </defs>
    <g data-name="Group 167">
        <g data-name="Group 159">
            <g data-name="Group 158" style="clip-path:url(#7pakvsdrra)" transform="translate(15.674 32.85)">
                <path data-name="Path 188" d="M.106 40.421c.6 1.8 1.181 3.5 1.75 5.209.738 2.212 1.467 4.427 2.2 6.638a3.592 3.592 0 0 0 3.877 2.822c1.821.013 3.642.016 5.462-.006.5-.006.743.079.744.669 0 1.411.3 1.678 1.713 1.68q4.136.006 8.271 0c1.375 0 1.7-.288 1.691-1.622-.006-.607.2-.74.766-.73 1.794.032 3.589.019 5.384.01a3.61 3.61 0 0 0 3.936-2.843q1.87-5.6 3.74-11.207c.056-.169.122-.334.269-.734.025.407.046.587.046.768v24.268a3.513 3.513 0 0 1-3.565 3.79c-.233.015-.468.01-.7.01H4.241a6.21 6.21 0 0 1-1.7-.153 3.416 3.416 0 0 1-2.525-3.2C-.009 57.409 0 49.034 0 40.659c0-.04.033-.081.1-.238" transform="translate(0 -34.015)" style="fill:#4b0858"/>
                <path data-name="Path 189" d="M18.4 4.688c1.378 0 2.757-.03 4.134.013.626.02.779-.2.786-.8.021-2 .9-3.3 2.534-3.736A5.78 5.78 0 0 1 27.32.012q4.174-.021 8.347 0c2.65.01 3.964 1.288 4.015 3.958.012.6.207.739.768.734 2.756-.024 5.513.005 8.269-.023.623-.007.739.116.531.727-1.367 4.022-2.7 8.056-4.04 12.085-.347 1.041-.608 1.24-1.686 1.246-1.82.01-3.641-.014-5.461.014-.529.008-.721-.131-.721-.692 0-1.37-.308-1.655-1.657-1.658q-4.174-.008-8.347 0c-1.36 0-1.674.289-1.676 1.64 0 .537-.149.72-.7.711a185.953 185.953 0 0 0-5.539-.005 1.484 1.484 0 0 1-1.6-1.162Q15.8 11.454 13.736 5.346c-.2-.6-.01-.68.532-.668 1.378.031 2.756.01 4.135.01m13.062 0h4.758c1.195 0 1.318-.157 1.094-1.353-.154-.819-.74-.987-1.447-.987h-8.737a2.555 2.555 0 0 0-.618.065c-.7.177-1.013.862-.86 1.856.113.734.692.391 1.052.4 1.585.039 3.172.017 4.758.017" transform="translate(-11.525 -.001)" style="fill:#4b0858"/>
                <path data-name="Path 190" d="M108.778 122.325c-.962 0-1.924-.017-2.885.007-.439.011-.573-.144-.589-.582-.064-1.767-.079-1.766 1.66-1.766 1.586 0 3.172.015 4.757-.008.475-.007.618.148.628.623.038 1.727.055 1.727-1.7 1.727h-1.872" transform="translate(-88.849 -101.246)" style="fill:#4b0858"/>
            </g>
        </g>
        <g data-name="Group 162">
            <g data-name="Group 161" style="clip-path:url(#1if9e31o8b)">
                <path data-name="Path 191" d="M186.034 28.943c1.4 1.888 2.53 3.351 3.593 4.859a3.965 3.965 0 0 0 2.266 1.663c1.551.436 3.052 1.046 4.593 1.523.745.23.869.488.384 1.137-1.051 1.407-2.02 2.876-3.067 4.286a2.777 2.777 0 0 0-.578 1.784c.018 1.8-.041 3.61-.041 5.415 0 .672-.146.908-.889.652-1.656-.57-3.357-1.01-5.016-1.574a3.156 3.156 0 0 0-2.15 0c-1.616.546-3.271.979-4.883 1.534-.721.248-1.056.181-.979-.649 0-.046-.006-.093 0-.139a13.138 13.138 0 0 0-3.684-11.243c-.564-.575-.549-1.048.372-1.207 4.692-.812 8-3.472 10.08-8.042" transform="translate(-126.469 -20.892)" style="fill:#4b0858"/>
                <path data-name="Path 192" d="M10.886 30.5c.394 0 .53.287.646.5a13.117 13.117 0 0 0 9.734 7.112c.981.171.85.688.328 1.218a13.17 13.17 0 0 0-3.672 11.248c.087.794-.167 1.147-1 .74A13.1 13.1 0 0 0 5 51.34c-.691.327-1.1.2-.982-.629a13.241 13.241 0 0 0-3.7-11.493c-.61-.638-.285-.97.416-1.1A13.046 13.046 0 0 0 10.38 31.1a3.649 3.649 0 0 1 .506-.606" transform="translate(0 -22.013)" style="fill:#4b0858"/>
                <path data-name="Path 193" d="M97.823 0c1.27 1.7 2.513 3.294 3.676 4.946a3 3 0 0 0 1.629 1.179c1.624.525 3.227 1.115 4.86 1.61.758.229 1.1.507.456 1.184a13.1 13.1 0 0 0-3.74 11.354c.124.89-.265 1.043-1.021.687a13.006 13.006 0 0 0-11.792.009c-.817.4-1.243.209-1.094-.752a12.956 12.956 0 0 0-3.686-11.343c-.557-.593-.433-.944.367-1.073.088-.014.166-.092.254-.106A12.539 12.539 0 0 0 97.054.923 6.633 6.633 0 0 1 97.823 0" transform="translate(-62.634)" style="fill:#4b0858"/>
            </g>
        </g>
    </g>
</svg>
