<svg xmlns="http://www.w3.org/2000/svg" width="30.767" height="30.767" viewBox="0 0 30.767 30.767">
    <g data-name="Group 251">
        <path data-name="Path 247" d="M0 13.415a6.562 6.562 0 0 1 .649-1.7 3.906 3.906 0 0 1 3.306-1.857c1.411-.03 2.823-.022 4.234 0a3.924 3.924 0 0 1 3.854 3.308 18.986 18.986 0 0 0 .832 3.437 4.075 4.075 0 0 1-1.081 4.668c-.764.744-.757.756-.137 1.613a21.283 21.283 0 0 0 4.93 4.872c.472.336.774.369 1.17-.1a4.324 4.324 0 0 1 2.7-1.591 3.587 3.587 0 0 1 1.747.154 26.338 26.338 0 0 0 3.824.969 3.8 3.8 0 0 1 3.316 3.478 26.029 26.029 0 0 1 0 5.047 3.843 3.843 0 0 1-3.12 3.441 1.4 1.4 0 0 0-.243.111H24.75c-.422-.081-.844-.16-1.265-.244Q6.192 35.583.921 18.759A39.393 39.393 0 0 1 0 14.236zm6.105-.928H4.6c-1.548 0-2.051.578-1.833 2.114a24.914 24.914 0 0 0 4 10.625 25.1 25.1 0 0 0 18.326 11.305 1.309 1.309 0 0 0 1.629-1.431q.037-1.879 0-3.759a1.379 1.379 0 0 0-1.346-1.579 21.209 21.209 0 0 1-3.761-.944 1.441 1.441 0 0 0-1.672.407c-.464.5-.957.976-1.451 1.448a1.325 1.325 0 0 1-1.849.246 22.648 22.648 0 0 1-8.343-8.36 1.293 1.293 0 0 1 .228-1.788c.506-.525 1.032-1.03 1.545-1.548a1.357 1.357 0 0 0 .377-1.5A22.606 22.606 0 0 1 9.436 13.7a1.342 1.342 0 0 0-1.417-1.208c-.637-.02-1.276 0-1.914-.006" transform="translate(0 -8.493)" style="fill:#b07ab4"/>
        <path data-name="Path 248" d="M140.494 12.17c-.2.522-.45.994-1.075 1.108-.9.165-1.522-.345-1.66-1.354a10.559 10.559 0 0 0-4.136-7.12 10.2 10.2 0 0 0-4.968-2.083c-1.229-.168-1.831-1.009-1.415-1.934.169-.374.52-.546.811-.786h.82a1.211 1.211 0 0 0 .246.1 13.244 13.244 0 0 1 10.652 8.769 24.579 24.579 0 0 1 .725 2.89z" transform="translate(-109.727)" style="fill:#b07ab4"/>
        <path data-name="Path 249" d="M135.165 46.1a1.315 1.315 0 0 1-2.519.58 4.224 4.224 0 0 1-.15-.52 5.364 5.364 0 0 0-4.01-3.953c-.947-.248-1.416-.867-1.226-1.642.2-.816.838-1.156 1.8-.964a8.09 8.09 0 0 1 6.05 6.084c.029.156.039.315.051.415" transform="translate(-109.823 -34.143)" style="fill:#b07ab4"/>
    </g>
</svg>
