<svg xmlns="http://www.w3.org/2000/svg" xmlns:xlink="http://www.w3.org/1999/xlink" width="142.42" height="128.715" viewBox="0 0 142.42 128.715">
  <defs>
    <style>
      .cls-1 {
        fill: #b07ab4;
      }

      .cls-2 {
        opacity: 0.11;
      }

      .cls-3 {
        clip-path: url(#clip-path);
      }
    </style>
    <clipPath id="clip-path">
      <rect id="Rectangle_36" data-name="Rectangle 36" class="cls-1" width="142.42" height="128.715"/>
    </clipPath>
  </defs>
  <g id="Group_81" data-name="Group 81" class="cls-2" transform="translate(0 56)">
    <g id="Group_77" data-name="Group 77" class="cls-3" transform="translate(0 -56)">
      <path id="Path_85" data-name="Path 85" class="cls-1" d="M142.419,47.02c.065,5.739-2.117,13.113-5.057,20.3-5.5,13.442-14.116,24.67-24.7,34.462-11.921,11.024-25.538,19.508-40.081,26.59a2.81,2.81,0,0,1-2.642.021c-16.787-8.2-32.324-18.18-45.346-31.747C13.875,85.488,5.759,72.729,1.842,57.669-2.521,40.9.784,25.624,12.638,12.8c15.891-17.192,41.615-16.981,57.583.126,1.019,1.091,1.019,1.091,2.08-.045C83.534.854,99.882-3.159,114.991,2.675c10.78,4.163,18.259,11.947,23.093,22.331,2.942,6.32,4.316,12.933,4.335,22.014M47.941,110.16a2.121,2.121,0,0,0,.14-1.237c.015-2.113.008-4.226.006-6.339a2.532,2.532,0,0,1,.693-2.006,2.221,2.221,0,0,1,2.448-.52,2.3,2.3,0,0,1,1.53,2.343c.006,3.342.025,6.685-.012,10.027a1.544,1.544,0,0,0,.914,1.662,6.168,6.168,0,0,1,1.074.67c.879.649,1.052.289,1.047-.629q-.037-7.664,0-15.329c.006-.932-.217-1.059-1.12-.84a7.542,7.542,0,0,1-9.428-7.379c-.032-7.146-.062-14.292,0-21.437A15.882,15.882,0,0,1,60.811,53.724c1.606,0,2.606.858,2.634,2.259a2.339,2.339,0,0,1-2.531,2.387A11.153,11.153,0,0,0,49.9,69.57c-.084,6.914-.031,13.831-.012,20.746a2.95,2.95,0,1,0,5.874-.012c.018-2.727,0-5.455.006-8.183,0-1.575-.032-3.152.026-4.725a2.224,2.224,0,0,1,2.309-2.227,2.286,2.286,0,0,1,2.312,2.239c.021.306.007.614.007.922q0,19.305-.02,38.611a1.7,1.7,0,0,0,1.052,1.788c2.091,1.055,4.149,2.176,6.188,3.33.9.509,1.124.355,1.119-.679-.033-6.723-.017-13.447-.012-20.17a6.931,6.931,0,0,1,.067-1.262,2.309,2.309,0,0,1,4.545.012,7.213,7.213,0,0,1,.065,1.262c.005,6.8.017,13.6-.006,20.4,0,.911.216,1.08,1.025.632,2.048-1.136,4.1-2.263,6.2-3.314a1.877,1.877,0,0,0,1.156-1.967q-.054-19.421-.023-38.841c0-1.934.779-2.935,2.279-2.957,1.53-.023,2.364,1.032,2.367,3q.006,3.8,0,7.607c0,1.575-.027,3.151.011,4.725a2.923,2.923,0,1,0,5.844.054c.009-.192.006-.384.006-.576q0-9.912-.005-19.824a14.3,14.3,0,0,0-.194-2.637A11.181,11.181,0,0,0,81.41,58.374a3.148,3.148,0,0,1-1.552-.355,2.317,2.317,0,0,1-1.04-2.589,2.351,2.351,0,0,1,2.549-1.708A15.906,15.906,0,0,1,96.973,69.593c.05,6.761.015,13.523.009,20.285-.005,5.822-4.063,9.149-9.778,8-.536-.107-.784-.067-.783.552q.016,8.125,0,16.251c0,.633.221.76.745.415a6.071,6.071,0,0,1,.984-.6,2.164,2.164,0,0,0,1.374-2.452c-.1-1.993-.039-3.994-.023-5.992a2.348,2.348,0,0,1,1.664-2.474,2.3,2.3,0,0,1,2.979,2.282c.048,1.478.01,2.958.01,4.731,1.951-1.419,3.617-2.7,5.353-3.872a3.372,3.372,0,0,0,1.815-3.242,2.229,2.229,0,0,1,3.505-1.951.891.891,0,0,0,1.269-.114c2.059-1.791,4.039-3.665,6.023-5.537a2.723,2.723,0,0,0,.94-2.207c-.048-3.5-.027-6.992-.014-10.488.007-1.742.936-2.809,2.376-2.783,1.409.025,2.284,1.059,2.306,2.739.009.653,0,1.306,0,1.959V89.53a36.9,36.9,0,0,0,4.7-5.448,1.6,1.6,0,0,0,.178-1c0-2.574.036-5.149-.009-7.722a9.579,9.579,0,0,0-2.841-6.733,10.064,10.064,0,0,0-7.012-3.031,2.3,2.3,0,0,1-2.368-2.821,2.365,2.365,0,0,1,2.582-1.819,14.71,14.71,0,0,1,14.06,11.916c.214,1.189.159,2.4.33,3.635.158-.09.245-.11.28-.164.169-.256.327-.52.483-.784a73.565,73.565,0,0,0,7.735-18.066C140.012,42.336,137.43,28.5,127,16.561a33.819,33.819,0,0,0-44.6-6.153,37.1,37.1,0,0,0-8.859,8.164c-1.546,1.958-3.049,1.962-4.582.039-.24-.3-.484-.6-.729-.893C54.823,1.487,31.711.15,16.941,15.028,6.251,25.8,2.775,39.012,5.724,53.741c2.339,11.685,7.868,22,15.109,31.4.135.176.243.4.535.412.306-.329.261-.772.343-1.171A12.284,12.284,0,0,1,33.152,74.7a2.591,2.591,0,0,1,2.215.723,2.222,2.222,0,0,1,.453,2.462,2.378,2.378,0,0,1-2.267,1.479c-4.544.306-7.438,3.435-7.449,8.019a14.3,14.3,0,0,1-.018,2.187c-.391,2.455,1.6,3.352,2.886,4.867a3.314,3.314,0,0,0,.2-1.548c.065-1.606.952-2.57,2.358-2.542a2.29,2.29,0,0,1,2.259,2.524c.031,1.69.05,3.382-.006,5.07a2.3,2.3,0,0,0,.875,1.985,148.584,148.584,0,0,0,12.4,9.754c.267.188.493.481.884.479" transform="translate(0 0)"/>
      <path id="Path_86" data-name="Path 86" class="cls-1" d="M276.065,123.468a13.813,13.813,0,1,1-13.78-13.8,13.792,13.792,0,0,1,13.78,13.8m-4.662.154a9.137,9.137,0,1,0-9.2,9,9.172,9.172,0,0,0,9.2-9" transform="translate(-191.169 -84.388)"/>
      <path id="Path_87" data-name="Path 87" class="cls-1" d="M406.938,178.124a12.727,12.727,0,1,1,12.726-12.767,12.747,12.747,0,0,1-12.726,12.767m8.047-12.7a8.056,8.056,0,1,0-8.047,8.078,8.081,8.081,0,0,0,8.047-8.078" transform="translate(-303.316 -117.478)"/>
      <path id="Path_88" data-name="Path 88" class="cls-1" d="M141.987,255.523a10.688,10.688,0,1,1,4.969-20.128c1.705.925,2.066,2.838.723,3.966a2.531,2.531,0,0,1-3,.106,6.025,6.025,0,1,0-3.1,11.378c.421.023.845-.021,1.266,0a2.281,2.281,0,0,1,2.258,2.173,2.244,2.244,0,0,1-1.981,2.417c-.453.07-.917.073-1.128.088" transform="translate(-101.002 -180.169)"/>
    </g>
  </g>
</svg>
