<svg data-name="Group 221" xmlns="http://www.w3.org/2000/svg" width="34.693" height="34.688" viewBox="0 0 34.693 34.688">
    <defs>
        <clipPath id="4b1rggusga">
            <path data-name="Rectangle 109" style="fill:#b07ab4" d="M0 0h34.693v34.688H0z"/>
        </clipPath>
    </defs>
    <g data-name="Group 220" style="clip-path:url(#4b1rggusga)">
        <path data-name="Path 233" d="M17.276 34.688H1.5c-1.2 0-1.49-.284-1.49-1.453Q.01 23.417 0 13.6a1.544 1.544 0 0 1 .71-1.42c1.018-.707 1.99-1.48 3-2.2a.9.9 0 0 0 .435-.837 149.126 149.126 0 0 1 0-3.724c.007-1.01.342-1.344 1.332-1.346 1.828 0 3.656-.011 5.484.007a1.689 1.689 0 0 0 1.116-.358c1.449-1.111 2.916-2.2 4.377-3.3.767-.575 1.029-.574 1.8 0 1.461 1.1 2.925 2.188 4.379 3.293a1.6 1.6 0 0 0 1.048.359c1.873-.022 3.746-.013 5.619-.008.877 0 1.242.345 1.254 1.218.017 1.241.02 2.483 0 3.724a1.058 1.058 0 0 0 .5 1.011c1.02.7 2 1.47 3 2.193a1.408 1.408 0 0 1 .644 1.25q-.019 9.953-.009 19.906c0 .982-.342 1.309-1.363 1.309H17.28M2.061 19.024c-.008.141-.021.272-.022.4 0 4.22.013 8.441-.017 12.661 0 .593.269.577.688.577q14.625-.01 29.249.008c.553 0 .715-.121.711-.7-.027-4.13-.014-8.26-.015-12.39 0-.19-.017-.379-.029-.631-.293.14-.515.241-.733.35-4.551 2.266-9.107 4.524-13.649 6.81a1.774 1.774 0 0 1-1.774.01c-4.54-2.289-9.1-4.547-13.65-6.809a1.561 1.561 0 0 0-.76-.292M17.418 6.105c-3.521 0-7.041.009-10.562-.01-.5 0-.7.1-.7.656q.037 5.687 0 11.374a.835.835 0 0 0 .558.869q5.092 2.5 10.162 5.056a.915.915 0 0 0 .931 0Q22.884 21.5 27.976 19a.834.834 0 0 0 .559-.868q-.028-5.687 0-11.374c0-.554-.182-.663-.692-.66-3.475.021-6.951.011-10.427.011m-13.277 8.86v-2.226c0-.393-.1-.505-.452-.234-.461.359-.938.7-1.407 1.044-.107.079-.235.153-.236.306a11.141 11.141 0 0 0 .064 2.683c.13.512.991.587 1.5.9.019.012.04.02.059.031.322.193.48.144.471-.273-.016-.742 0-1.484 0-2.226m26.417-.033v.878c0 2.008 0 2 1.768 1.016a.56.56 0 0 0 .339-.577c-.015-.72-.013-1.44 0-2.16a.6.6 0 0 0-.272-.567c-.48-.333-.949-.681-1.412-1.038-.326-.252-.422-.129-.42.221v2.227M15.053 4.024h4.593c-.75-.563-1.4-1.039-2.037-1.535a.356.356 0 0 0-.524 0c-.634.5-1.284.972-2.033 1.534" transform="translate(-.001)" style="fill:#b07ab4"/>
        <path data-name="Path 234" d="M82.777 75.091h5.817c.839 0 1.3.38 1.281 1.042-.018.63-.468.983-1.272.984H76.968c-.838 0-1.3-.381-1.281-1.043.017-.63.467-.982 1.272-.983h5.817" transform="translate(-65.434 -64.918)" style="fill:#b07ab4"/>
        <path data-name="Path 235" d="M79.734 105.079c.969 0 1.938-.008 2.906 0a1.018 1.018 0 1 1 0 2.022q-2.906.012-5.812 0a1.018 1.018 0 1 1 0-2.022c.969-.01 1.937 0 2.906 0" transform="translate(-65.436 -90.842)" style="fill:#b07ab4"/>
    </g>
</svg>
