<svg xmlns="http://www.w3.org/2000/svg" width="468" height="84.236" viewBox="0 0 468 84.236">
    <defs>
        <clipPath id="7vq2ee0qva">
            <path data-name="Rectangle 23" style="fill:none" d="M0 0h100.09v84.236H0z"/>
        </clipPath>
    </defs>
    <g data-name="Group 107">
        <g data-name="Group 106">
            <g data-name="Group 61" style="clip-path:url(#7vq2ee0qva)">
                <path data-name="Path 16" d="M1166.873 5.873A25.439 25.439 0 0 0 1161.18 0a107.761 107.761 0 0 1-3.26 11.015c-1.6 3.961-4.623 7.978-5.187 12.238a21.784 21.784 0 0 0 7.7 19.16 27.261 27.261 0 0 1-.761-17.213c.822-2.761 2.264-5.293 3.026-8.073a26.054 26.054 0 0 0 .733-9.349 26.861 26.861 0 0 1-.075 8.927c-.513 2.9-1.839 5.567-2.5 8.426a28.111 28.111 0 0 0 1.751 17.282 23.338 23.338 0 0 0 1.716-3.933q1.042-2.553 2.013-5.133c1.209-3.205 2.323-6.428 3.225-9.735a22.285 22.285 0 0 0-2.683-17.741c-1.669-2.256 3.448 5.35 0 0" transform="translate(-1109.727 -.002)" style="fill:#612d78"/>
                <path data-name="Path 17" d="M437.537 421.777a25.437 25.437 0 0 0-8.175.242 107.789 107.789 0 0 1 5.931 9.837c1.845 3.853 2.77 8.795 5.534 12.085a21.784 21.784 0 0 0 19.337 7.243 27.259 27.259 0 0 1-13.22-11.051c-1.483-2.469-2.38-5.242-3.918-7.68a26.058 26.058 0 0 0-6.407-6.849 26.873 26.873 0 0 1 6.539 6.078c1.794 2.335 2.868 5.113 4.532 7.531a28.111 28.111 0 0 0 13.938 10.366 23.341 23.341 0 0 0-1.745-3.919q-1.181-2.492-2.431-4.949c-1.55-3.055-3.178-6.051-5.01-8.947a22.285 22.285 0 0 0-14.906-9.988c-2.791-.29 6.275 1.064 0 0" transform="translate(-413.405 -405.897)" style="fill:#c6a8d9"/>
                <path data-name="Path 18" d="M1520.013 413.384a25.429 25.429 0 0 0 .256-8.174 107.781 107.781 0 0 1-10.18 5.322c-3.958 1.607-8.947 2.23-12.4 4.789a21.784 21.784 0 0 0-8.406 18.861 27.26 27.26 0 0 1 11.834-12.523c2.555-1.331 5.377-2.057 7.9-3.444a26.058 26.058 0 0 0 7.225-5.979 26.874 26.874 0 0 1-6.464 6.157c-2.439 1.648-5.278 2.552-7.793 4.066a28.11 28.11 0 0 0-11.195 13.282 23.347 23.347 0 0 0 4.018-1.5q2.559-1.027 5.088-2.125c3.144-1.361 6.234-2.8 9.236-4.457a22.286 22.286 0 0 0 10.875-14.271c.459-2.768-1.444 6.2 0 0" transform="translate(-1433.896 -390.151)" style="fill:#4b0858"/>
                <path data-name="Path 19" d="M50.062 895.719s-1.723-15.3-12.648-19.545a72.078 72.078 0 0 0-8.984-1.737c-5.4-.729-8.329-1.526-10.177-3.422s-4.818-3-3.067 2.338c0 0 1.027 4.668 7.812 6.276 4.211 1.067 12.33 1.223 7.789 4.1a12.808 12.808 0 0 1-10.68-1.632c-5.368-3.536-9.121-8.721-12.324-13.368s-4.863-5.329-5.412-5.867-4-1.722-1.429 2.866A69.428 69.428 0 0 1 7 876.788c2.453 5.851 7.561 15.811 21.8 18.3 10.025 1.421 14.436 2.769 16.914 6.748 0 0 3.554 4.9-1.832 12.424 0 0 7.01-4.034 6.188-18.541" transform="translate(0 -830.269)" style="fill:#6b4b7a"/>
                <path data-name="Path 20" d="M1355.183 889.657s1.546-15.323 12.422-19.69a72.113 72.113 0 0 1 8.964-1.84c5.4-.791 8.311-1.622 10.137-3.539s4.784-3.053 3.094 2.3c0 0-.973 4.68-7.739 6.365-4.2 1.115-12.315 1.365-7.741 4.188a12.807 12.807 0 0 0 10.661-1.755c5.326-3.6 9.02-8.826 12.169-13.509s4.8-5.382 5.345-5.927 3.98-1.768 1.462 2.849a69.41 69.41 0 0 0-5.926 11.129c-2.386 5.879-7.378 15.9-21.585 18.55-10.008 1.536-14.4 2.935-16.835 6.943 0 0-3.5 4.945 1.975 12.4 0 0-7.056-3.953-6.4-18.468" transform="translate(-1304.777 -823.889)" style="fill:#6b4b7a"/>
            </g>
        </g>
        <text data-name="Demming Counseling Services" transform="translate(107 52)" style="fill:#35063e;font-size:30px;font-family:TimesNewRomanPS-BoldMT,Times New Roman;font-weight:700;letter-spacing:-.036em"><tspan x="0" y="0">Demming Counseling Services</tspan></text>
    </g>
</svg>
