<svg xmlns="http://www.w3.org/2000/svg" width="83.681" height="75.628" viewBox="0 0 83.681 75.628">
    <defs>
        <clipPath id="hu5m6ec1ma">
            <path data-name="Rectangle 36" style="fill:#fff" d="M0 0h83.681v75.628H0z"/>
        </clipPath>
    </defs>
    <g data-name="Group 77" style="clip-path:url(#hu5m6ec1ma)">
        <path data-name="Path 85" d="M83.68 27.627c.038 3.372-1.244 7.7-2.972 11.929A56.905 56.905 0 0 1 66.194 59.8a96.239 96.239 0 0 1-23.55 15.624 1.651 1.651 0 0 1-1.552.012C31.228 70.625 22.1 64.759 14.447 56.788 8.152 50.23 3.384 42.733 1.082 33.884-1.481 24.029.461 15.056 7.426 7.521c9.337-10.1 24.452-9.977 33.834.074.6.641.6.641 1.222-.027a22.662 22.662 0 0 1 25.083-6 24.435 24.435 0 0 1 13.568 13.125 29.211 29.211 0 0 1 2.547 12.934m-55.512 37.1A1.246 1.246 0 0 0 28.25 64c.009-1.241 0-2.483 0-3.725a1.488 1.488 0 0 1 .407-1.179 1.305 1.305 0 0 1 1.438-.305 1.353 1.353 0 0 1 .9 1.376c0 1.964.015 3.928-.007 5.892a.907.907 0 0 0 .537.977 3.624 3.624 0 0 1 .631.394c.517.381.618.17.615-.37q-.022-4.5 0-9.007c0-.547-.127-.622-.658-.494a4.432 4.432 0 0 1-5.54-4.336c-.019-4.2-.037-8.4 0-12.6a9.331 9.331 0 0 1 9.149-9.061c.944 0 1.531.5 1.547 1.327a1.374 1.374 0 0 1-1.487 1.4 6.553 6.553 0 0 0-6.469 6.581c-.041 4.07-.013 8.13.002 12.197a1.733 1.733 0 1 0 3.451-.007c.011-1.6 0-3.205 0-4.808 0-.925-.019-1.852.015-2.776a1.307 1.307 0 0 1 1.357-1.308 1.343 1.343 0 0 1 1.362 1.314c.013.18 0 .361 0 .542q0 11.343-.012 22.686a1 1 0 0 0 .618 1.051 88.23 88.23 0 0 1 3.636 1.956c.529.3.661.209.658-.4-.019-3.95-.01-7.9-.007-11.851a4.073 4.073 0 0 1 .039-.742 1.357 1.357 0 0 1 2.671.007 4.238 4.238 0 0 1 .038.742c0 4 .01 7.991 0 11.986 0 .535.127.635.6.371a96.13 96.13 0 0 1 3.641-1.947 1.1 1.1 0 0 0 .679-1.156q-.032-11.411-.014-22.822c0-1.136.458-1.725 1.339-1.737.9-.013 1.389.606 1.391 1.765v4.47c0 .925-.016 1.852.006 2.776a1.717 1.717 0 1 0 3.434.032c.005-.113 0-.226 0-.338V41.225a8.4 8.4 0 0 0-.114-1.549 6.57 6.57 0 0 0-6.27-5.376 1.85 1.85 0 0 1-.912-.208 1.361 1.361 0 0 1-.611-1.521 1.381 1.381 0 0 1 1.5-1 9.346 9.346 0 0 1 9.17 9.325c.029 3.973.009 7.946.005 11.919 0 3.421-2.387 5.375-5.745 4.7-.315-.063-.461-.039-.46.324q.01 4.774 0 9.548c0 .372.13.447.438.244a3.567 3.567 0 0 1 .578-.351 1.272 1.272 0 0 0 .807-1.441c-.057-1.171-.023-2.347-.013-3.521a1.379 1.379 0 0 1 .978-1.453 1.353 1.353 0 0 1 1.75 1.341c.028.868.006 1.738.006 2.78 1.146-.834 2.125-1.584 3.145-2.275a1.982 1.982 0 0 0 1.067-1.9 1.31 1.31 0 0 1 2.06-1.146.523.523 0 0 0 .746-.067c1.21-1.052 2.373-2.153 3.539-3.253a1.6 1.6 0 0 0 .552-1.3c-.028-2.054-.016-4.108-.008-6.162 0-1.024.55-1.65 1.4-1.635.828.015 1.342.622 1.355 1.61.005.384 0 .768 0 1.151v2.6a21.68 21.68 0 0 0 2.762-3.2.937.937 0 0 0 .1-.589c0-1.512.021-3.025-.005-4.537a5.628 5.628 0 0 0-1.669-3.956 5.913 5.913 0 0 0-4.12-1.781 1.35 1.35 0 0 1-1.391-1.657 1.389 1.389 0 0 1 1.517-1.069 8.643 8.643 0 0 1 8.261 7c.126.7.093 1.411.194 2.136.093-.053.144-.065.165-.1.1-.151.192-.306.284-.461a43.224 43.224 0 0 0 4.544-10.615c2.444-8.9.927-17.032-5.2-24.049a19.871 19.871 0 0 0-26.2-3.615 21.8 21.8 0 0 0-5.205 4.8c-.908 1.151-1.792 1.153-2.692.023a42.614 42.614 0 0 0-.428-.525C32.212.874 18.632.088 9.954 8.83c-6.281 6.327-8.323 14.092-6.591 22.746a44.612 44.612 0 0 0 8.877 18.452c.079.1.143.237.314.242.18-.193.153-.453.2-.688a7.218 7.218 0 0 1 6.722-5.691 1.522 1.522 0 0 1 1.3.425 1.306 1.306 0 0 1 .266 1.447 1.4 1.4 0 0 1-1.332.869 4.451 4.451 0 0 0-4.377 4.712 8.4 8.4 0 0 1-.01 1.285c-.23 1.442.939 1.969 1.7 2.859a1.947 1.947 0 0 0 .115-.91c.038-.943.56-1.51 1.385-1.493a1.346 1.346 0 0 1 1.327 1.483c.018.993.03 1.987 0 2.979a1.349 1.349 0 0 0 .514 1.166 87.3 87.3 0 0 0 7.288 5.731c.157.11.29.283.519.282" style="fill:#fff"/>
        <path data-name="Path 86" d="M264.671 117.777a8.116 8.116 0 1 1-8.1-8.108 8.1 8.1 0 0 1 8.1 8.108m-2.739.09a5.369 5.369 0 1 0-5.4 5.29 5.389 5.389 0 0 0 5.4-5.29" transform="translate(-214.789 -94.815)" style="fill:#fff"/>
        <path data-name="Path 87" d="M401.677 167.626a7.478 7.478 0 1 1 7.477-7.5 7.49 7.49 0 0 1-7.477 7.5m4.728-7.462a4.734 4.734 0 1 0-4.728 4.746 4.748 4.748 0 0 0 4.728-4.746" transform="translate(-340.793 -131.993)" style="fill:#fff"/>
        <path data-name="Path 88" d="M137.562 246.705a6.28 6.28 0 1 1 2.919-11.827 1.381 1.381 0 0 1 .425 2.33 1.487 1.487 0 0 1-1.764.063 3.54 3.54 0 1 0-1.824 6.685c.247.013.5-.012.744 0a1.34 1.34 0 0 1 1.327 1.277 1.318 1.318 0 0 1-1.164 1.42c-.266.041-.539.043-.663.052" transform="translate(-113.481 -202.43)" style="fill:#fff"/>
    </g>
</svg>
