<svg data-name="Group 69" xmlns="http://www.w3.org/2000/svg" width="24.25" height="24.243" viewBox="0 0 24.25 24.243">
    <defs>
        <clipPath id="ret1wj8o9a">
            <path data-name="Rectangle 29" style="fill:#35063e;stroke:#fff" d="M0 0h24.25v24.243H0z"/>
        </clipPath>
    </defs>
    <g data-name="Group 68" style="clip-path:url(#ret1wj8o9a)">
        <path data-name="Path 65" d="M17.06 60.862a10.76 10.76 0 0 1-4.46-1.229A24.107 24.107 0 0 1 1.29 48.372 11.982 11.982 0 0 1 .055 44.56a3.644 3.644 0 0 1 1.135-3.528c.537-.455 1-.991 1.508-1.486a1.787 1.787 0 0 1 2.778-.01q1.414 1.4 2.809 2.812a1.78 1.78 0 0 1 0 2.739c-.548.56-1.1 1.116-1.667 1.656a.461.461 0 0 0-.115.609 12.37 12.37 0 0 0 2.081 3.055 16.454 16.454 0 0 0 4.23 3.58c.218.123.457.213.667.348a.443.443 0 0 0 .652-.1c.524-.556 1.069-1.092 1.612-1.629a1.779 1.779 0 0 1 2.8 0q1.389 1.38 2.768 2.77a1.8 1.8 0 0 1-.006 2.8c-.571.577-1.155 1.141-1.714 1.731a3.185 3.185 0 0 1-2.524.954" transform="translate(0 -36.621)" style="fill:#35063e;stroke:#fff"/>
        <path data-name="Path 66" d="M210.72 0a11.49 11.49 0 0 1 5.116 1.836 11.936 11.936 0 0 1 5.437 8.394 2.016 2.016 0 0 1-.01 1.085A1.23 1.23 0 0 1 218.9 11a9.645 9.645 0 0 0-7.51-8.387 8.177 8.177 0 0 0-.969-.168 1.229 1.229 0 0 1-1.176-1.345A1.263 1.263 0 0 1 210.72 0" transform="translate(-197.095 .001)" style="fill:#35063e;stroke:#fff"/>
        <path data-name="Path 67" d="M215.649 81.957a1.207 1.207 0 0 1-1.2-1.039 5.271 5.271 0 0 0-3.924-4.208c-.176-.051-.359-.073-.535-.124a1.229 1.229 0 0 1 .594-2.384 7.723 7.723 0 0 1 6.128 5.583 5 5 0 0 1 .17.762 1.206 1.206 0 0 1-1.231 1.41" transform="translate(-196.963 -69.87)" style="fill:#35063e;stroke:#fff"/>
    </g>
</svg>
