<svg xmlns="http://www.w3.org/2000/svg" width="38.524" height="38.505" viewBox="0 0 38.524 38.505">
    <defs>
        <clipPath id="oqayrag7ga">
            <path data-name="Rectangle 112" style="fill:#b07ab4" d="M0 0h38.524v38.505H0z"/>
        </clipPath>
    </defs>
    <g data-name="Group 227">
        <g data-name="Group 226" style="clip-path:url(#oqayrag7ga)">
            <path data-name="Path 244" d="M29.353 122.871c1.179-1.247 2.263-2.455 3.413-3.6a3.369 3.369 0 0 1 4.971 4.538c-1.606 2.177-3.278 4.307-4.852 6.507a8.531 8.531 0 0 1-7.577 3.767c-3.935-.073-7.873-.007-11.81-.03-.516 0-.719.1-.792.657a3.241 3.241 0 0 1-1.894 2.541c-.737.372-1.469.752-2.212 1.111-.871.421-1.382.245-1.829-.645q-2.642-5.263-5.27-10.533c-.436-.872-.885-1.738-1.307-2.617a1.145 1.145 0 0 1 .577-1.742c.8-.417 1.6-.82 2.418-1.2a2.948 2.948 0 0 1 2.477-.148.886.886 0 0 0 1.11-.262 32.763 32.763 0 0 1 2.049-1.767 7.767 7.767 0 0 1 9.548 0 4.359 4.359 0 0 0 3.281 1.1c1.146-.092 2.308.034 3.458-.031 1.89-.107 3.416.4 4.241 2.353m-9.88 8.943c2.231 0 4.463.022 6.694-.007a5.058 5.058 0 0 0 4.051-1.823c2-2.506 3.895-5.092 5.812-7.662a1.048 1.048 0 0 0-.2-1.538 1.063 1.063 0 0 0-1.495.093c-.183.171-.352.357-.523.54-1.437 1.539-2.88 3.073-4.306 4.622a3.734 3.734 0 0 1-2.933 1.265c-1.981-.022-3.961 0-5.942-.008-.9 0-1.382-.4-1.389-1.112s.473-1.135 1.362-1.138c1.73-.005 3.46 0 5.19 0 .911 0 1.458-.448 1.44-1.158-.018-.685-.543-1.1-1.42-1.1-1.83 0-3.661-.013-5.491 0a3.538 3.538 0 0 1-2.234-.741c-.36-.272-.71-.557-1.069-.829a5.579 5.579 0 0 0-6.835.034c-.691.538-1.318 1.158-2 1.7-.368.294-.373.548-.167.953q1.875 3.675 3.691 7.379a.852.852 0 0 0 .924.537c2.281-.021 4.563-.01 6.844-.012m-14.849-8.27a6.39 6.39 0 0 0-1.416.584c-.522.189-.506.44-.278.889 1.617 3.189 3.205 6.393 4.8 9.591.749 1.5.756 1.5 2.172.576a1.1 1.1 0 0 0 .454-1.55q-2.328-4.706-4.69-9.4a1.227 1.227 0 0 0-1.045-.693" transform="translate(0 -100.078)" style="fill:#b07ab4"/>
            <path data-name="Path 245" d="M97.278 15.932h-5.342c-1.106 0-1.457-.368-1.494-1.488a6.943 6.943 0 0 1 3.17-6.486c.432-.284.2-.456.022-.694a4.254 4.254 0 0 1-.41-4.735A4.346 4.346 0 0 1 97.273 0a4.263 4.263 0 0 1 4 2.465 4.243 4.243 0 0 1-.311 4.682c-.348.489-.265.63.171.94a7.089 7.089 0 0 1 2.9 6.841c-.056.7-.569 1.009-1.269 1.006-1.831-.006-3.662 0-5.493 0m-.051-2.253h3.458c1.273 0 1.273 0 .96-1.213A4.5 4.5 0 0 0 96.9 9.126a4.653 4.653 0 0 0-4.147 3.914c-.048.473.028.667.562.651 1.3-.037 2.606-.012 3.909-.012m.044-6.872a2.25 2.25 0 0 0 2.28-2.207 2.283 2.283 0 1 0-4.565-.073 2.265 2.265 0 0 0 2.288 2.28" transform="translate(-76.827)" style="fill:#b07ab4"/>
        </g>
    </g>
</svg>
