<svg data-name="Group 260" xmlns="http://www.w3.org/2000/svg" width="57.189" height="65.523" viewBox="0 0 57.189 65.523">
    <defs>
        <clipPath id="tp85rpk6wa">
            <path data-name="Rectangle 130" style="fill:#4b0858" d="M0 0h57.189v65.523H0z"/>
        </clipPath>
    </defs>
    <g data-name="Group 259" style="clip-path:url(#tp85rpk6wa)">
        <path data-name="Path 252" d="M10.977 39.622c-1.278-.069-2.406.091-3.567.087.03-.078.033-.146.067-.168a10.8 10.8 0 0 0 4.071-5.413A28.938 28.938 0 0 0 13.4 22.754a35.5 35.5 0 0 1 1.442-12.088 15.935 15.935 0 0 1 5.156-7.749A14.259 14.259 0 0 1 35.386 1.7a15.262 15.262 0 0 1 6.992 8.983 34.8 34.8 0 0 1 1.44 11.917 28.934 28.934 0 0 0 2.028 11.971 10.794 10.794 0 0 0 3.933 5.05c-1.727-.225-3.424-.554-5.167-.638.528.226 1.063.435 1.581.681a18.79 18.79 0 0 1 8.377 7.608 18.226 18.226 0 0 1 2.513 11.4c-.385 3.678-2.39 5.8-6.038 6.468a31.666 31.666 0 0 1-6.354.373q-15.887-.3-31.774-.01a33.9 33.9 0 0 1-6.751-.363c-3.559-.654-5.494-2.592-6-6.188a17.582 17.582 0 0 1 1.519-9.88 18.771 18.771 0 0 1 8.966-9.245c.067-.033.128-.079.324-.2m25.2-21.092a3.006 3.006 0 0 0 1.214-3.483 7.01 7.01 0 0 0-.726-1.845c-.184-.347-.338-.4-.68-.155a54.506 54.506 0 0 1-5.139 3.245 43.344 43.344 0 0 1-7.676 3.523 43.891 43.891 0 0 1-6.519 1.562c-.385.065-.528.169-.48.61a23.372 23.372 0 0 0 1.043 4.887 17.338 17.338 0 0 0 5.124 8.115 9.243 9.243 0 0 0 11.382.854 14.037 14.037 0 0 0 4.531-4.936 25.2 25.2 0 0 0 3.005-10.99c.039-.6-.152-.784-.717-.842-1.394-.143-2.783-.343-4.362-.544M17.68 39.735c.18.213.236.289.3.356l6.553 6.636q1.856 1.881 3.7 3.772c.264.272.437.3.716 0 .953-1.051 1.945-2.067 2.908-3.111q3.006-3.26 6-6.534l2.132-2.319a10.044 10.044 0 0 0-4.981.786c.286-.595.508-1.05.725-1.508.207-.438.409-.879.613-1.319-5.318 4.32-10.5 4.216-15.744-.329l2.116 4.756a13.667 13.667 0 0 0-5.039-1.183M4.444 54.913a15.6 15.6 0 0 0 .124 2.387 2.782 2.782 0 0 0 1.571 2.283 6.879 6.879 0 0 0 3.648.565 1.164 1.164 0 0 0 1.084-1.178 1.128 1.128 0 0 0-1.051-1.2 12.883 12.883 0 0 0-2.1 0c-.878.079-1.078-.028-1.2-.9a13.839 13.839 0 0 1 .79-6.656.5.5 0 0 1 .238-.3 2.072 2.072 0 0 0 .874-1.08 8.88 8.88 0 0 1 2.158-2.971 2.593 2.593 0 0 1 3.862 0 9.045 9.045 0 0 1 2.058 2.77c.138.268.221.6.48.762a1.838 1.838 0 0 1 .729 1.166c.108.363.227.724.326 1.09a14.061 14.061 0 0 1 .322 5.418c-.056.463-.247.834-.8.74a12.032 12.032 0 0 0-2.1-.061 1.209 1.209 0 1 0-.02 2.411 6.914 6.914 0 0 0 2.881-.384 2.811 2.811 0 0 0 1.96-2.21 16.147 16.147 0 0 0-.149-5.768c-.233-1.23-.967-2.353-.785-3.672a.634.634 0 0 0-.1-.324 11.551 11.551 0 0 0-3.077-4.181 10.9 10.9 0 0 1-2.372-2.047c-.158-.224-.275-.367-.174-.634a6.919 6.919 0 0 1 4.87-4.611c.968-.251.976-.219.986-1.207.009-.966 0-1-.976-.82a8.636 8.636 0 0 0-6.722 5.886 2.852 2.852 0 0 1-.965 1.64 1.543 1.543 0 0 0-.42.6.808.808 0 0 1-.335.364 10.706 10.706 0 0 0-4.359 5.15 1.227 1.227 0 0 0-.2.814 1.481 1.481 0 0 1-.124.985 14.639 14.639 0 0 0-.928 5.173m42.507-9.352a3.57 3.57 0 0 0-1.8-3.2 3.8 3.8 0 0 1-1.877-2.6 7.732 7.732 0 0 0-4.491-4.987c-.721-.293-.729-.271-.982.5a7.3 7.3 0 0 1-.26.75c-.131.286-.024.4.243.5a6.118 6.118 0 0 1 3.689 4.124c.28.818.27.821-.511 1.136a4.363 4.363 0 0 0 2.1 8.384 4.435 4.435 0 0 0 3.886-4.6M40.3 52.422c-.4 0-.8.011-1.194 0-.489-.017-.686.225-.683.691.006.72-.011 1.441.006 2.161.008.322-.106.431-.425.423-.72-.017-1.441 0-2.161-.007-.476-.006-.7.208-.69.686q.014 1.137 0 2.275c-.007.484.217.683.694.673.72-.016 1.441.008 2.161-.013.328-.01.429.11.421.426-.019.7 0 1.4-.017 2.1-.013.479.146.767.672.763a106.27 106.27 0 0 1 2.328 0c.456.008.662-.194.658-.647-.007-.72.017-1.441-.007-2.161-.012-.367.1-.5.477-.489.719.026 1.441 0 2.161.009.449.005.663-.188.656-.649-.012-.739 0-1.479 0-2.218 0-.623-.138-.753-.777-.758s-1.29-.024-1.933.007c-.431.021-.611-.091-.582-.56.041-.661-.007-1.327.015-1.989.018-.543-.221-.762-.751-.729-.34.021-.682 0-1.023 0" style="fill:#4b0858"/>
        <path data-name="Path 253" d="M99.528 109.636a2.174 2.174 0 0 1 4.348-.006 2.174 2.174 0 1 1-4.348.006" transform="translate(-59.106 -63.822)" style="fill:#4b0858"/>
    </g>
</svg>
