<svg xmlns="http://www.w3.org/2000/svg" width="74.167" height="86.326" viewBox="0 0 74.167 86.326">
    <defs>
        <clipPath id="a5kqmtrjga">
            <path data-name="Rectangle 59" style="fill:#fff" d="M0 0h39.794v28.709H0z"/>
        </clipPath>
    </defs>
    <g data-name="Group 101" style="opacity:.23">
        <path data-name="Path 134" d="M308.16 426.957a58.012 58.012 0 0 0 27.545-12.557c2.977-2.392 2.011-2.35 4.977.067a70.593 70.593 0 0 0 9.337 6.383 2.5 2.5 0 0 1-.2 1.654c-1.1 1.642-.368 2.4 1.2 3.2a47.637 47.637 0 0 0 13.155 4.639c3.318.606 7 2.887 9.969-.889.6.48.182 1.416 1 1.615a48.718 48.718 0 0 1-.078 7.521c-.129 1.482-.026.01-.144 2.241a81.556 81.556 0 0 1-5.373 25.569c-3.041 7.9-8.34 14.146-14.249 20.063-4.679 4.685-10.037 8.348-15.509 11.938a2.67 2.67 0 0 1-3.27-.016 84.549 84.549 0 0 1-26.064-24.254 92.734 92.734 0 0 1-4.348-9.459c-1.32-3.594-2.181-7.31-3.222-10.979a104.224 104.224 0 0 1-1.684-23.759c.036-.681-.158-1.456.547-1.962l2.6-.414.82-.09a20.117 20.117 0 0 0 3-.514m31.63-1.154c-1.11-1.508-2.275-1.237-3.651-.283a69.188 69.188 0 0 1-6.77 4.36 66.924 66.924 0 0 1-14.957 5.356c-1.288.334-2.62.64-3.18 2.1a41.672 41.672 0 0 0 .361 8.932 56.827 56.827 0 0 0 4.3 17.762c4.429 9.923 12.176 17.02 21 23.045 1.112.759 2.016.35 2.922-.307 2.978-2.161 5.914-4.354 8.728-6.751 13.235-11.274 16.188-26.448 16.569-42.665.024-1.03-.344-1.463-1.409-1.685-2.433-.508-4.836-1.172-7.23-1.849-6.021-1.7-11.4-4.764-16.683-8.011" transform="translate(-301.076 -412.631)" style="fill:#fff"/>
        <path data-name="Path 135" d="M549.434 460.791c-.819-.2-.4-1.134-1-1.615-2.971 3.776-6.651 1.5-9.969.889a47.631 47.631 0 0 1-13.155-4.639c-1.565-.8-2.3-1.562-1.2-3.2a2.5 2.5 0 0 0 .2-1.654 99.08 99.08 0 0 0 9.978 4.19 74.606 74.606 0 0 0 12.348 2.605c3.04.415 3.124.55 2.792 3.427" transform="translate(-475.399 -442.349)" style="fill:#fff"/>
        <path data-name="Path 136" d="M376.5 469.574c-.322.611-.8.456-1.278.252a2.051 2.051 0 0 0-2.149.432c-7.649 5.292-15.847 9.337-25.133 10.846.561-1.457 1.892-1.763 3.181-2.1a66.929 66.929 0 0 0 14.957-5.356 69.189 69.189 0 0 0 6.77-4.36c1.376-.954 2.541-1.225 3.651.283" transform="translate(-337.787 -456.401)" style="fill:#fff"/>
        <g data-name="Group 103">
            <g data-name="Group 102" style="clip-path:url(#a5kqmtrjga)" transform="translate(18.867 30.722)">
                <path data-name="Path 139" d="M39.792 4.636a4.558 4.558 0 0 1-1.58 3.518c-2.707 2.715-5.4 5.446-8.1 8.16q-5.272 5.278-10.557 10.538a4.986 4.986 0 0 1-4.355 1.811 4.621 4.621 0 0 1-2.642-1.337c-3.736-3.705-7.485-7.4-11.153-11.17a4.588 4.588 0 0 1 1.8-7.7 4.429 4.429 0 0 1 4.651 1.218c2.089 2.023 4.133 4.093 6.183 6.156 1.442 1.451 2.09 1.464 3.552 0q6.936-6.972 13.867-13.95a5.508 5.508 0 0 1 2.917-1.8 4.5 4.5 0 0 1 5.418 4.557" transform="translate(0 .001)" style="fill:#fff"/>
            </g>
        </g>
        <path data-name="Path 140" d="m701.084 2847.479 8.177 7.542" transform="translate(-677.36 -2806.578)" style="fill:none;stroke:#fff;stroke-linecap:round;stroke-width:2px"/>
    </g>
</svg>
