<svg data-name="Group 300" xmlns="http://www.w3.org/2000/svg" width="140.924" height="78.516" viewBox="0 0 140.924 78.516">
    <defs>
        <clipPath id="aakofvbyia">
            <path data-name="Rectangle 35" style="fill:#b07ab4" d="M0 0h52.244v55.043H0z"/>
        </clipPath>
    </defs>
    <g data-name="Group 291">
        <g data-name="Group 286">
            <g data-name="Group 289">
                <path data-name="Path 262" d="m10.609 55.8-1.878 4.719C8.2 61.847 7.695 63.18 7.154 64.5a3.373 3.373 0 0 1-3.077 2.33 3.089 3.089 0 0 1-3.048-1.63 2.97 2.97 0 0 1-.265-2.537c1.364-4.034 2.687-8.082 4.024-12.125.063-.189.189-.35-.064-.544a5.026 5.026 0 0 1-1.871-4.336c0-.227.038-.418-.3-.507a3.076 3.076 0 0 1-2.389-4.106c.808-2.887 1.7-5.749 2.571-8.619.407-1.345.776-2.706 1.265-4.026a5.445 5.445 0 0 1 6.2-3.8 15.1 15.1 0 0 0 3.833-.06c3.074-.454 5.331 1.167 6.281 4.424.558 1.912 1.156 3.813 1.738 5.718.034.112.084.219.127.329.074-.006 2.972 7.8.212 10.432-.6.389-1.107.054-1.117.277a5.986 5.986 0 0 1-1.4 3.825 1.091 1.091 0 0 1-1.069.476c-.43-.069-.563.1-.577.55q-.208 6.584-.464 13.166a3.251 3.251 0 0 1-3.415 3.279 3.31 3.31 0 0 1-3.317-3.329q-.139-3.929-.291-7.857l-.131-.034M4.94 45.3a5.669 5.669 0 0 0 .278 2.049.778.778 0 0 0 .885.618c.416-.044.84 0 1.26-.011.379-.014.47.094.337.477-.52 1.507-1.006 3.026-1.507 4.54l-3.4 10.277a1.085 1.085 0 0 0 .547 1.377 1.365 1.365 0 0 0 1.86-.882c.489-1.228.965-2.461 1.454-3.689 1.542-3.88 3.1-7.752 4.612-11.645.23-.593.617-.441 1-.448.473-.009.3.376.307.6q.261 7.4.5 14.8c.033 1 .519 1.572 1.344 1.563.8-.009 1.248-.552 1.281-1.542l.483-14.427c.034-1.01.036-1.01 1.08-1.01 1.4 0 1.654-.228 1.855-1.641.012-.083.015-.167.023-.251a17.937 17.937 0 0 0-.708-6.039A60.276 60.276 0 0 0 16 32.421c-.069-.179-.307-.437.043-.587a.552.552 0 0 1 .646.084 1.341 1.341 0 0 1 .187.461q1.692 4.842 3.38 9.686a1.591 1.591 0 0 0 .492.789.724.724 0 0 0 .761.163.682.682 0 0 0 .4-.656 4.191 4.191 0 0 0-.17-1.494q-1.747-5.748-3.489-11.5c-.6-1.987-1.884-3-3.646-2.767a21.511 21.511 0 0 1-4.777.077A3.3 3.3 0 0 0 6 29.046c-.481 1.272-.833 2.593-1.226 3.9q-1.3 4.308-2.574 8.623c-.206.7.022 1.324.464 1.477.473.164.9-.165 1.176-.959q1.711-4.9 3.4-9.811c.131-.381.3-.627.71-.474s.162.471.082.693c-.7 1.934-1.311 3.9-1.846 5.883A31.492 31.492 0 0 0 4.94 45.3" transform="translate(95.296 11.494)" style="fill:#b07ab4"/>
                <path data-name="Path 264" d="M23.859 5.946a5.883 5.883 0 0 1-6.066 5.971 5.959 5.959 0 1 1 6.066-5.971M21.8 6a3.978 3.978 0 0 0-3.892-3.925A4.016 4.016 0 0 0 14.013 6 3.893 3.893 0 0 0 21.8 6" transform="translate(89.45 23.472)" style="fill:#b07ab4"/>
            </g>
        </g>
        <g data-name="Group 290">
            <path data-name="Path 269" d="m12.971 55.8 1.878 4.719c.526 1.326 1.036 2.659 1.576 3.98A3.373 3.373 0 0 0 19.5 66.83a3.089 3.089 0 0 0 3.051-1.63 2.97 2.97 0 0 0 .265-2.537c-1.364-4.034-2.687-8.082-4.024-12.125-.063-.189-.189-.35.064-.544a5.026 5.026 0 0 0 1.871-4.336c0-.227-.038-.418.3-.507a3.076 3.076 0 0 0 2.389-4.109c-.808-2.887-1.7-5.749-2.571-8.619-.406-1.345-.775-2.705-1.26-4.022a5.445 5.445 0 0 0-6.2-3.8 15.1 15.1 0 0 1-3.833-.06c-3.074-.454-5.331 1.167-6.281 4.424-.558 1.912-1.156 3.813-1.738 5.718-.034.112-.084.219-.127.329-.074-.006-2.972 7.8-.212 10.432.6.389 1.107.054 1.117.277a5.986 5.986 0 0 0 1.4 3.825 1.091 1.091 0 0 0 1.069.476c.43-.069.563.1.577.55q.208 6.584.464 13.166a3.251 3.251 0 0 0 3.415 3.279 3.31 3.31 0 0 0 3.317-3.329q.139-3.929.291-7.857l.131-.034m5.668-10.5a5.669 5.669 0 0 1-.278 2.049.778.778 0 0 1-.885.618c-.416-.044-.84 0-1.26-.011-.379-.014-.47.094-.337.477.52 1.507 1.006 3.026 1.507 4.54l3.4 10.277a1.085 1.085 0 0 1-.547 1.377 1.365 1.365 0 0 1-1.865-.881c-.489-1.228-.965-2.461-1.454-3.689-1.542-3.88-3.1-7.752-4.612-11.645-.23-.593-.617-.441-1-.448-.473-.009-.3.376-.307.6q-.261 7.4-.5 14.8c-.033 1-.519 1.572-1.344 1.563-.8-.009-1.248-.552-1.281-1.542l-.483-14.427c-.034-1.01-.036-1.01-1.08-1.01-1.4 0-1.654-.228-1.855-1.641-.012-.083-.015-.167-.023-.251a17.937 17.937 0 0 1 .708-6.04 60.276 60.276 0 0 1 2.444-7.6c.069-.179.307-.437-.043-.587a.552.552 0 0 0-.646.084 1.341 1.341 0 0 0-.187.461q-1.692 4.842-3.38 9.686a1.592 1.592 0 0 1-.492.789.724.724 0 0 1-.761.163.682.682 0 0 1-.4-.656 4.191 4.191 0 0 1 .17-1.494q1.747-5.748 3.489-11.5c.6-1.987 1.884-3 3.646-2.767a21.511 21.511 0 0 0 4.777.077 3.3 3.3 0 0 1 3.826 2.368c.481 1.272.833 2.593 1.226 3.9q1.3 4.308 2.574 8.623c.206.7-.022 1.324-.464 1.477-.473.164-.9-.165-1.176-.959q-1.711-4.9-3.4-9.811c-.131-.381-.3-.627-.71-.474s-.162.471-.082.693c.7 1.934 1.311 3.9 1.846 5.883a31.492 31.492 0 0 1 1.235 6.931" transform="translate(117.344 11.494)" style="fill:#b07ab4"/>
            <path data-name="Path 270" d="M11.943 5.946a5.883 5.883 0 0 0 6.066 5.971 5.959 5.959 0 1 0-6.066-5.971M14 6a3.978 3.978 0 0 1 3.9-3.929A4.016 4.016 0 0 1 21.789 6 3.893 3.893 0 0 1 14 6" transform="translate(111.233 23.472)" style="fill:#b07ab4"/>
        </g>
    </g>
    <g data-name="Group 76">
        <g data-name="Group 75" style="clip-path:url(#aakofvbyia)" transform="translate(43.052)">
            <path data-name="Path 79" d="M24.626 51.136c2.747-4.68 5.325-8.95 7.765-13.3a4.591 4.591 0 0 1 3.593-2.523 30.767 30.767 0 0 1 9.956.039 3.385 3.385 0 0 1 2.944 2.856c.98 4.246 2.088 8.462 3.136 12.691.2.8.593 1.769-.612 2.042s-1.277-.81-1.475-1.585c-1.013-3.975-2.063-7.943-2.96-11.945a2.439 2.439 0 0 0-2.473-2.168 45.533 45.533 0 0 0-7.5.044 3.58 3.58 0 0 0-2.978 2.065c-2.42 4.3-4.978 8.527-7.451 12.8-.5.869-.968 1.577-2.141 1.625-1.368.056-1.51-1.034-1.907-1.826-1.869-3.724-3.74-7.448-5.486-11.231-.933-2.021-2.113-3.136-4.555-2.893-2.478.246-5 .04-7.5.057-2.3.015-2.87.55-2.886 2.823-.03 4.234-.013 8.469-.019 12.7 0 .513.013 1.029-.034 1.538-.059.628-.313 1.134-1.062 1.1S0 55.493.005 54.86C.014 49.6-.048 44.338.1 39.081a3.651 3.651 0 0 1 3.844-3.335c3.528-.062 7.058-.029 10.587-.009 2.138.012 3.149 1.548 3.977 3.17 1.72 3.368 3.351 6.782 5.025 10.174.28.567.594 1.118 1.093 2.054" transform="translate(0 -21.478)" style="fill:#b07ab4"/>
            <path data-name="Path 80" d="M89.017 91.721v-6.156c0-.9-.115-2.031 1.161-2.009 1.184.02.984 1.129.986 1.934q.02 6.156.007 12.313c0 .989-.115 1.926 1.418 1.872 1.471-.052 1.218-1.024 1.222-1.875.017-4.04.064-8.082-.018-12.12-.034-1.648.5-2.442 2.2-2.213 1.387.187 1.666-.418 1.284-1.653-.4-1.284-.714-2.594-1.022-3.9-.153-.649-.166-1.354.648-1.578.914-.251 1.261.4 1.452 1.131.455 1.735.936 3.465 1.307 5.219.352 1.663-.442 2.865-2.145 2.887-1.543.021-1.609.808-1.6 1.937q.031 5.579 0 11.158c-.019 2.619-.571 3.143-3.186 3.155-1.8.009-3.591.013-5.387 0-2.253-.018-2.944-.7-2.959-3.008-.025-3.784-.039-7.567.009-11.351.015-1.191-.127-1.868-1.612-1.9-1.672-.037-2.477-1.276-2.13-2.916.371-1.754.843-3.487 1.26-5.231.179-.747.475-1.433 1.391-1.189.876.233.888.947.691 1.715-.35 1.365-.609 2.755-1 4.108-.326 1.133.046 1.573 1.171 1.419 1.882-.257 2.453.571 2.4 2.41-.113 4.037-.034 8.08-.032 12.12 0 .847-.09 1.662 1.215 1.683 1.273.02 1.279-.708 1.272-1.606-.018-2.116-.006-4.233-.005-6.349" transform="translate(-49.544 -46.839)" style="fill:#b07ab4"/>
            <path data-name="Path 81" d="M20.684 91.727c0 3.463-.039 6.927.019 10.389.023 1.405-.5 1.956-1.917 1.923-2.82-.064-5.644-.057-8.465 0-1.322.025-1.844-.5-1.839-1.813.023-6.926 0-13.852.009-20.779 0-.771-.035-1.7 1.029-1.743 1.255-.05 1.118.989 1.119 1.8.012 6.093 0 12.185.017 18.278 0 .967-.325 2.075 1.387 2.108 1.68.032 1.461-.994 1.46-2.013V86.41a12.077 12.077 0 0 1 .043-1.536c.082-.631.442-1.122 1.12-1.092s.978.518.98 1.188c0 1.924.017 3.848.019 5.772 0 2.95-.031 5.9.017 8.85.016.961-.518 2.254 1.374 2.295 2.059.044 1.441-1.383 1.449-2.376.044-5.707.022-11.415.026-17.123 0-.513-.013-1.028.038-1.537.061-.611.284-1.156 1.02-1.168.84-.013 1.081.542 1.082 1.27q.008 3.559.012 7.118v3.656" transform="translate(-5.216 -48.998)" style="fill:#b07ab4"/>
            <path data-name="Path 82" d="M62.346 5.256a8 8 0 0 1-2.8 4.929c-3.823 3.671-3.171 3.523-6.865.1a9.918 9.918 0 0 1-2.641-3.729 3.248 3.248 0 0 1 .9-3.991 2.915 2.915 0 0 1 3.881-.074c1.049.8 1.732.459 2.687-.107 2.356-1.4 4.822.031 4.842 2.872m-2.165-.226c-.074-.724-.489-1.238-1.372-.86a4.8 4.8 0 0 0-1.532 1.124c-.843.895-1.59.958-2.4-.014a4.506 4.506 0 0 0-.86-.76c-.531-.378-1.116-.764-1.735-.224-.6.522-.381 1.176-.092 1.766a13.04 13.04 0 0 0 3.35 3.911.973.973 0 0 0 .684.224c.909-.123 3.939-4.015 3.955-5.168" transform="translate(-30.576 -1.099)" style="fill:#b07ab4"/>
            <path data-name="Path 83" d="M20.738 6.067a6.048 6.048 0 0 1-6.128 6.069 6.24 6.24 0 0 1-5.94-6.131 6.077 6.077 0 0 1 6.009-6 5.878 5.878 0 0 1 6.059 6.066m-5.953-3.915a3.979 3.979 0 0 0-3.977 3.872 4.053 4.053 0 0 0 3.957 3.922A3.936 3.936 0 0 0 18.6 6.139a3.867 3.867 0 0 0-3.812-3.983" transform="translate(-5.331)" style="fill:#b07ab4"/>
            <path data-name="Path 84" d="M95.791 12.354A6.071 6.071 0 0 1 89.868 6.3a5.982 5.982 0 0 1 11.963-.075 6.025 6.025 0 0 1-6.04 6.127m3.883-6.12a3.924 3.924 0 0 0-3.815-3.8 3.977 3.977 0 0 0-3.884 3.955 4.038 4.038 0 0 0 3.851 3.8 3.9 3.9 0 0 0 3.849-3.958" transform="translate(-55.26 -.183)" style="fill:#b07ab4"/>
        </g>
    </g>
    <g data-name="Group 298">
        <g data-name="Group 295">
            <g data-name="Group 296">
                <path data-name="Path 271" d="M43.87 34.964c0-1.189-.011-2.379 0-3.568a8.41 8.41 0 0 1 1.294-4.667c1.4-2.124 3.456-2.568 5.8-2.227a21.378 21.378 0 0 0 5.527.042 8.439 8.439 0 0 1 2.946.01c2.441.59 3.57 2.408 4.226 4.636a10.475 10.475 0 0 1 .319 2.555c.162 3.925.352 7.848.535 11.772a3.2 3.2 0 0 1-3.487 3.472c-.443-.038-.366.184-.37.428q-.1 5.83-.194 11.66c-.022 1.365 0 2.733-.071 4.1a3.749 3.749 0 0 1-2.1 3.421 3.674 3.674 0 0 1-3.986-.364.507.507 0 0 0-.74 0 3.633 3.633 0 0 1-3.981.36 3.569 3.569 0 0 1-2.048-3.309c-.105-5.084-.179-10.168-.264-15.253v-.126c-.008-.863-.007-.874-.844-.923a3.027 3.027 0 0 1-2.575-1.567M58.375 48h.348c0-2.878-.009-5.756 0-8.633.009-2.144.047-4.287.068-6.431 0-.295.033-.583.4-.595.349-.011.43.231.444.55.076 1.806.169 3.611.256 5.415s.166 3.61.261 5.415a1.157 1.157 0 0 0 1.206 1.183 1.142 1.142 0 0 0 1.068-1.243c0-.147 0-.294-.008-.441q-.232-4.91-.469-9.821a25.574 25.574 0 0 0-.153-2.956c-.5-2.994-1.872-4.093-4.864-3.832a27.726 27.726 0 0 1-6.661-.089 3.193 3.193 0 0 0-3.7 1.959 6.105 6.105 0 0 0-.569 2.246q-.247 5.542-.47 11.085c-.027.651-.08 1.3-.05 1.952a1.115 1.115 0 0 0 1.066 1.122 1.129 1.129 0 0 0 1.119-1 5.831 5.831 0 0 0 .1-.874q.244-5.006.48-10.012c.014-.291-.037-.617.421-.613s.41.32.415.617c.038 2.564.07 5.127.116 7.691q.163 9.012.34 18.025c.032 1.575-.043 3.154.131 4.723a1.575 1.575 0 0 0 1.567 1.437 1.663 1.663 0 0 0 1.7-1.3 4.192 4.192 0 0 0 .086-.75q.081-2.268.148-4.535.176-6.3.341-12.6c.008-.325.028-.554.468-.539.465.015.352.316.361.566.077 2.2.156 4.409.22 6.615.1 3.549.194 7.1.3 10.648a1.729 1.729 0 0 0 1.747 1.9c.984.007 1.644-.716 1.69-1.881.037-.965.065-1.932.067-2.9q.011-6.053 0-12.1" transform="translate(-24.412 11.496)" style="fill:#b07ab4"/>
                <path data-name="Path 272" d="M57.78 11.978a5.927 5.927 0 0 1-5.9-6.09 5.971 5.971 0 1 1 5.9 6.09m.041-2.078a3.866 3.866 0 1 0-3.845-3.926A3.879 3.879 0 0 0 57.821 9.9" transform="translate(-28.339 23.412)" style="fill:#b07ab4"/>
            </g>
        </g>
        <g data-name="Group 297">
            <g data-name="Group 296">
                <path data-name="Path 271" d="M43.87 34.964c0-1.189-.011-2.379 0-3.568a8.41 8.41 0 0 1 1.294-4.667c1.4-2.124 3.456-2.568 5.8-2.227a21.378 21.378 0 0 0 5.527.042 8.439 8.439 0 0 1 2.946.01c2.441.59 3.57 2.408 4.226 4.636a10.475 10.475 0 0 1 .319 2.555c.162 3.925.352 7.848.535 11.772a3.2 3.2 0 0 1-3.487 3.472c-.443-.038-.366.184-.37.428q-.1 5.83-.194 11.66c-.022 1.365 0 2.733-.071 4.1a3.749 3.749 0 0 1-2.1 3.421 3.674 3.674 0 0 1-3.986-.364.507.507 0 0 0-.74 0 3.633 3.633 0 0 1-3.981.36 3.569 3.569 0 0 1-2.048-3.309c-.105-5.084-.179-10.168-.264-15.253v-.126c-.008-.863-.007-.874-.844-.923a3.027 3.027 0 0 1-2.575-1.567M58.375 48h.348c0-2.878-.009-5.756 0-8.633.009-2.144.047-4.287.068-6.431 0-.295.033-.583.4-.595.349-.011.43.231.444.55.076 1.806.169 3.611.256 5.415s.166 3.61.261 5.415a1.157 1.157 0 0 0 1.206 1.183 1.142 1.142 0 0 0 1.068-1.243c0-.147 0-.294-.008-.441q-.232-4.91-.469-9.821a25.574 25.574 0 0 0-.153-2.956c-.5-2.994-1.872-4.093-4.864-3.832a27.726 27.726 0 0 1-6.661-.089 3.193 3.193 0 0 0-3.7 1.959 6.105 6.105 0 0 0-.569 2.246q-.247 5.542-.47 11.085c-.027.651-.08 1.3-.05 1.952a1.115 1.115 0 0 0 1.066 1.122 1.129 1.129 0 0 0 1.119-1 5.831 5.831 0 0 0 .1-.874q.244-5.006.48-10.012c.014-.291-.037-.617.421-.613s.41.32.415.617c.038 2.564.07 5.127.116 7.691q.163 9.012.34 18.025c.032 1.575-.043 3.154.131 4.723a1.575 1.575 0 0 0 1.567 1.437 1.663 1.663 0 0 0 1.7-1.3 4.192 4.192 0 0 0 .086-.75q.081-2.268.148-4.535.176-6.3.341-12.6c.008-.325.028-.554.468-.539.465.015.352.316.361.566.077 2.2.156 4.409.22 6.615.1 3.549.194 7.1.3 10.648a1.729 1.729 0 0 0 1.747 1.9c.984.007 1.644-.716 1.69-1.881.037-.965.065-1.932.067-2.9q.011-6.053 0-12.1" transform="translate(-43.861 11.496)" style="fill:#b07ab4"/>
                <path data-name="Path 272" d="M57.78 11.978a5.927 5.927 0 0 1-5.9-6.09 5.971 5.971 0 1 1 5.9 6.09m.041-2.078a3.866 3.866 0 1 0-3.845-3.926A3.879 3.879 0 0 0 57.821 9.9" transform="translate(-47.788 23.412)" style="fill:#b07ab4"/>
            </g>
        </g>
    </g>
</svg>
