<svg xmlns="http://www.w3.org/2000/svg" width="76.489" height="75.47" viewBox="0 0 76.489 75.47">
    <g data-name="Group 73">
        <g data-name="Group 74">
            <path data-name="Path 68" d="M111.158 48.048c1.609 1.169 1.922 2.384.45 3.786-.495.471-.265 1.082-.112 1.671a16.48 16.48 0 0 1 .633 2.984c.259 3.849-2.461 6.091-6.193 5.126a28.792 28.792 0 0 0-5.371-1.035c-2.884-.183-3.973.631-4.362 3.465a34.377 34.377 0 0 0-.262 8.842c.136 1.116-.072 1.575-1.278 1.571q-12.9-.045-25.8 0c-1.114 0-1.386-.379-1.207-1.445a56.511 56.511 0 0 0-.734-20.666c-.105-.524-.375-1.2.345-1.36.868-.2.847.67.949 1.186a58.022 58.022 0 0 1 .937 19.552c-.17 1.2.094 1.446 1.244 1.439q11.369-.066 22.739 0c1.109.006 1.483-.25 1.424-1.424a35.838 35.838 0 0 1 .532-8.831c.444-2.228 1.375-3.11 3.6-3.526a12.861 12.861 0 0 1 4.954.318c.946.191 1.867.5 2.81.715 2.537.575 4.221-.7 4.382-3.31a7.487 7.487 0 0 0-.528-3 2.956 2.956 0 0 1 .532-3.43c.552-.536.3-.859-.174-1.289-1.766-1.6-1.672-2.216.539-2.8 1.3-.342 1.155-.859.627-1.788-1.493-2.627-1.287-3.1 1.607-4.133 1.881-.673 2.181-1.14 1.005-2.772-3.593-4.987-4.467-10.651-4.849-16.6-.517-8.057-4.851-13.772-12.029-17.213a27.54 27.54 0 0 0-22.1-.954C66.98 6.241 62.933 12.754 61.852 21.46a33.9 33.9 0 0 0 1.437 13.684c.252.877.552 1.741.8 2.62.127.457.321 1.049-.338 1.213-.617.154-.763-.41-.92-.881-2.2-6.625-3.273-13.3-1.645-20.277 2.08-8.923 7.629-14.389 16.3-16.688C86.057-1.135 94.269-.081 101.681 5a20.682 20.682 0 0 1 9.265 16.379c.306 4.459.5 8.931 2.878 12.924.686 1.154 1.452 2.266 2.058 3.46 1.039 2.047.551 3.181-1.592 4a5.882 5.882 0 0 1-.76.266c-1.159.264-1.592.784-.741 1.862a5.2 5.2 0 0 1 .627 1.124c.616 1.39.327 2.045-1.116 2.6l-1.142.439" transform="translate(-40.414 .513)" style="fill:#b07ab4;stroke:#b07ab4"/>
            <path data-name="Path 69" d="M43.683 20.361a19.309 19.309 0 0 1 18.226 13.175 19.669 19.669 0 0 1-6.68 21.95 19.146 19.146 0 0 1-22.327.67c-1.629-1.089-1.749-1.037-1.925.992a2.056 2.056 0 0 1-.715 1.216Q19.609 70.145 8.943 81.913a5.056 5.056 0 1 1-7.243-7.02c7.816-7.3 15.684-14.546 23.533-21.812.358-.331.75-.734 1.261-.558a1.089 1.089 0 0 0 1.379-.459c.485-.647-.165-.982-.42-1.38a19.652 19.652 0 0 1 8.4-28.713 18.24 18.24 0 0 1 7.829-1.61m.033 1.292a18.237 18.237 0 1 0 17.919 18.38 18.176 18.176 0 0 0-17.918-18.379M4.977 82.4a4.062 4.062 0 0 0 3.309-1.7q9.553-10.591 19.138-21.15c2.247-2.482 2.212-2.45-.1-4.844-.731-.757-1.14-.757-1.9-.039-4.46 4.2-8.974 8.333-13.468 12.493-3.114 2.883-6.236 5.757-9.329 8.662a3.572 3.572 0 0 0-1.006 4.247A3.551 3.551 0 0 0 4.977 82.4M29.9 55.24c.187-.317.747-.509.554-.865a2.362 2.362 0 0 0-1.476-1.348.579.579 0 0 0-.588.751 3.136 3.136 0 0 0 1.51 1.462" transform="translate(.5 -13.276)" style="fill:#b07ab4;stroke:#b07ab4"/>
            <path data-name="Path 70" d="M149.383 47.123c-.107.478.337 1.409-.662 1.409-.859 0-.58-.873-.621-1.4a14.335 14.335 0 0 0-13.265-13.4c-.577-.046-1.549.234-1.426-.754.108-.87 1.035-.543 1.623-.515a15.588 15.588 0 0 1 14.35 14.668" transform="translate(-89.86 -21.415)" style="fill:#b07ab4;stroke:#b07ab4"/>
            <path data-name="Path 71" d="M97.582 48.065c.692.125.681.659.619 1.127-.185 1.408.241 2.139 1.8 1.885.442-.072 1.1-.129 1.136.551.044.79-.65.793-1.162.708-1.591-.266-1.942.521-1.778 1.89.056.467.057 1.074-.643 1.059s-.682-.622-.618-1.086c.2-1.421-.267-2.108-1.8-1.862-.46.074-1.066.078-1.121-.591-.059-.722.566-.737 1.02-.666 1.593.248 2.142-.419 1.9-1.95-.077-.483-.015-.993.643-1.064" transform="translate(-63.183 -32.045)" style="fill:#b07ab4;stroke:#b07ab4"/>
            <path data-name="Path 72" d="M115.746 107.737c-.1.637-.6.714-1.084.648-1.409-.191-2.108.257-1.864 1.8.083.52.045 1.2-.736 1.141-.67-.053-.607-.716-.535-1.152.262-1.593-.526-1.955-1.9-1.783-.492.062-1.074-.009-1.075-.656 0-.683.626-.681 1.083-.6 1.633.274 2.1-.475 1.895-1.968-.063-.457-.056-1.07.663-1.023.537.036.682.523.611.967-.254 1.591.3 2.317 1.977 2.025.421-.073.879.012.966.609" transform="translate(-73.029 -70.024)" style="fill:#b07ab4;stroke:#b07ab4"/>
            <path data-name="Path 73" d="M138.461 114.567c-.756-.192-.653-.817-.587-1.3.182-1.346-.339-1.851-1.677-1.673-.488.065-1.237.17-1.24-.6 0-.9.826-.719 1.342-.654 1.31.165 1.709-.384 1.581-1.619-.054-.517-.24-1.35.666-1.323.756.023.65.769.583 1.261-.18 1.335.318 1.861 1.668 1.677.486-.066 1.238-.173 1.245.6.007.9-.825.727-1.341.659-1.313-.173-1.711.378-1.573 1.61.06.537.2 1.237-.668 1.369" transform="translate(-90.915 -72.231)" style="fill:#b07ab4;stroke:#b07ab4"/>
            <path data-name="Path 74" d="M145.238 68.6c-.766-.007-.79-.558-.725-1.015.215-1.5-.27-2.217-1.88-1.948-.464.077-1.093.064-1.119-.577-.031-.777.666-.759 1.172-.68 1.5.231 2.026-.385 1.825-1.837-.061-.442-.121-1.071.572-1.111.668-.039.772.531.7 1.016-.225 1.5.28 2.2 1.879 1.931.464-.078 1.069-.031 1.044.65s-.626.678-1.091.608c-1.46-.22-2.056.339-1.83 1.816.073.473.017.974-.548 1.147" transform="translate(-95.357 -41.094)" style="fill:#b07ab4;stroke:#b07ab4"/>
            <path data-name="Path 75" d="M161.025 102.049c-.859 0-1.719.011-2.578 0-.437-.008-.922-.051-.9-.649.016-.45.381-.629.791-.63q2.82-.014 5.639 0c.413 0 .749.208.744.671-.006.5-.4.589-.794.6-.967.015-1.934.005-2.9.005v.008" transform="translate(-106.216 -67.738)" style="fill:#b07ab4;stroke:#b07ab4"/>
            <path data-name="Path 76" d="M123.588 51.748c-.914 0-1.828.01-2.741-.007-.409-.007-.757-.167-.747-.651s.37-.617.775-.618q2.822-.013 5.644 0c.426 0 .756.167.739.645-.016.461-.337.636-.767.637h-2.9" transform="translate(-80.851 -33.67)" style="fill:#b07ab4;stroke:#b07ab4"/>
            <path data-name="Path 77" d="M122.822 84.348h2.578c.456 0 .908.075.877.67-.024.455-.376.616-.794.616-1.88 0-3.759 0-5.638-.013-.419 0-.745-.21-.724-.678.022-.488.4-.583.8-.587.967-.008 1.933 0 2.9 0v-.007" transform="translate(-80.187 -56.62)" style="fill:#b07ab4;stroke:#b07ab4"/>
            <path data-name="Path 78" d="M95.543 94.788h-2.726c-.4 0-.777-.1-.828-.564s.269-.689.689-.691q2.886-.019 5.773 0a.61.61 0 0 1 .671.552c.043.475-.274.681-.692.69-.961.021-1.924.006-2.886.008" transform="translate(-61.806 -62.838)" style="fill:#b07ab4;stroke:#b07ab4"/>
        </g>
    </g>
</svg>
