<svg data-name="Group 124" xmlns="http://www.w3.org/2000/svg" width="30.5" height="25.007" viewBox="0 0 30.5 25.007">
    <defs>
        <clipPath id="645ds4m0ga">
            <path data-name="Rectangle 80" style="fill:#fff" d="M0 0h30.5v25.007H0z"/>
        </clipPath>
    </defs>
    <g data-name="Group 123" style="clip-path:url(#645ds4m0ga)">
        <path data-name="Path 145" d="M30.466 30.3c0 5.217.036 10.239-.021 15.261-.018 1.638-1.22 2.593-3.031 2.6q-10.54.017-21.081 0c-1.139 0-2.277.017-3.415 0A2.679 2.679 0 0 1 .022 45.3C0 40.7.027 36.111 0 31.518c0-.853.2-.924.9-.512 4.3 2.507 8.639 4.965 12.935 7.486a2.077 2.077 0 0 0 2.382.009c4.467-2.619 8.964-5.186 13.452-7.77.2-.114.4-.22.793-.435" transform="translate(0 -23.156)" style="fill:#fff"/>
        <path data-name="Path 146" d="M15.359.008c4 0 8 .012 12-.008a3.079 3.079 0 0 1 2.593 1.126 2.189 2.189 0 0 1-.671 3.474c-4.481 2.584-8.97 5.149-13.431 7.767a1.328 1.328 0 0 1-1.576-.03Q7.827 8.573 1.339 4.878a2.514 2.514 0 0 1-.2-4.272A3.384 3.384 0 0 1 3.24 0c4.04.016 8.079.008 12.119.008" transform="translate(-.035 1.414)" style="fill:#fff"/>
    </g>
</svg>
