<svg xmlns="http://www.w3.org/2000/svg" width="54.337" height="90.296" viewBox="0 0 54.337 90.296">
    <defs>
        <clipPath id="94sp6m9i8a">
            <path data-name="Rectangle 131" style="fill:#b07ab4" d="M0 0h17.337v15.338H0z"/>
        </clipPath>
    </defs>
    <g data-name="Group 284">
        <g data-name="Group 280">
            <g data-name="Group 281">
                <path data-name="Path 254" d="M0 45.82v-1.254a13.143 13.143 0 0 1 .691-1.181q4.538-6.218 9.1-12.421a4.011 4.011 0 0 1 .5-.561c.486-.452.856-.622 1.108.257.4 1.4.884 2.781 1.378 4.153a1.516 1.516 0 0 1-.31 1.6c-1.11 1.448-2.159 2.942-3.231 4.416a.611.611 0 0 0 .674.054 41.394 41.394 0 0 1 12.531-1.164c1.794.051 3.6.1 5.385-.011 3.588-.221 6.043 1.483 7.851 4.383a22.956 22.956 0 0 1 2.946 8.838c.316 2.05.5 4.121.745 6.182v8.274a4.988 4.988 0 0 0-.222 1.707c-.061 1.82-1.115 2.909-2.757 2.869-1.606-.04-2.6-1.212-2.563-3.052.027-1.294.108-2.587.126-3.882.076-5.228-.023-10.44-1.628-15.49-.128-.4-.154-.894-.7-1.157v1.085c0 15.914-.037 31.827.038 47.74.013 2.772-.862 4.669-3.576 5.531h-1c-3.087-1.1-3.769-2.088-3.769-5.475V69.822c0-.376-.025-.754 0-1.127.044-.57-.247-.689-.751-.716-1.077-.058-.819.711-.819 1.282q-.013 14.032-.006 28.065c0 3.321-.632 4.254-3.684 5.409h-1c-3.036-1.239-3.568-2.05-3.569-5.475V47.294c0-1.661 0-1.655-1.578-1.322-2.649.56-5.3 1.127-7.951 1.662C1.731 48.078 0 47.53 0 45.82" transform="translate(1.25 -13.687)" style="stroke-width:2.5px;stroke:#b07ab4;fill:none"/>
                <path data-name="Path 255" d="M68.161 0a9.78 9.78 0 0 1 4.5 2.249A7.588 7.588 0 0 1 65.3 14.974a7.56 7.56 0 0 1-5.448-7.648A7.507 7.507 0 0 1 65.722.27c.316-.071.682.022.935-.27z" transform="translate(-42.47 6.566)" style="stroke-width:2px;stroke:#b07ab4;fill:none"/>
                <path data-name="Path 256" d="M45.2 16.142c.533-.105.619.214.724.484 1.246 3.2 2.468 6.4 3.745 9.585.218.544-.109.622-.542.79-.525.2-.836.122-1.016-.343q-1.887-4.854-3.785-9.7c-.306-.78.538-.6.875-.812" transform="translate(-31.491 -4.124)" style="stroke-width:.5px;stroke:#b07ab4;fill:#b07ab4"/>
                <path data-name="Path 257" d="M98.5 17.871a8.85 8.85 0 0 1-8.633-8.821 8.719 8.719 0 0 1 17.433-.11 8.782 8.782 0 0 1-8.8 8.931m5.66-8.92a5.72 5.72 0 0 0-5.56-5.536 5.8 5.8 0 0 0-5.661 5.764 5.886 5.886 0 0 0 5.612 5.54 5.683 5.683 0 0 0 5.61-5.768" transform="translate(-73.668 5.111)" style="stroke:#fff;fill:#b07ab4"/>
            </g>
        </g>
        <g data-name="Group 283">
            <g data-name="Group 282" style="clip-path:url(#94sp6m9i8a)" transform="translate(37)">
                <path data-name="Path 258" d="M8.735.008c1.963 0 3.926-.014 5.889 0 1.874.018 2.686.834 2.7 2.71q.024 3.312 0 6.625c-.016 1.808-.837 2.625-2.624 2.651a17.066 17.066 0 0 1-2.574-.016 7.719 7.719 0 0 0-6.696 2.195 1.006 1.006 0 0 1-.2.14c-.785.442-1.437 1.414-2.5.859-1-.519-.531-1.525-.563-2.334-.02-.505-.105-.8-.647-.989A2.242 2.242 0 0 1 0 9.445c.012-2.29-.016-4.581.009-6.871A2.279 2.279 0 0 1 2.6.014C4.645-.012 6.69.008 8.735.008M3.669 13.553c1.161-.809 2.14-1.408 3.019-2.129a4.085 4.085 0 0 1 2.942-.931c1.634.069 3.274-.01 4.911.027.884.019 1.278-.328 1.27-1.22-.02-2.21-.014-4.421 0-6.631 0-.821-.361-1.184-1.191-1.181q-5.956.022-11.911 0c-.813 0-1.218.338-1.215 1.167.008 2.251 0 4.5 0 6.754 0 .6.217 1.152.887 1.069 1.4-.173 1.418.622 1.3 1.619a14.035 14.035 0 0 0-.008 1.455" style="fill:#b07ab4"/>
                <path data-name="Path 259" d="M32.267 20.472c.687.056 1.169.394 1.178 1.113a1.156 1.156 0 0 1-2.311.065c-.035-.69.416-1.1 1.133-1.178" transform="translate(-23.482 -15.441)" style="fill:#b07ab4"/>
                <path data-name="Path 260" d="M17.69 21.647c-.136.772-.527 1.206-1.256 1.159a1.056 1.056 0 0 1-1.045-1.252 1.019 1.019 0 0 1 1.148-1.019 1.121 1.121 0 0 1 1.153 1.112" transform="translate(-11.604 -15.488)" style="fill:#b07ab4"/>
                <path data-name="Path 261" d="M47.038 20.483a1.067 1.067 0 0 1 1.1 1.2 1.033 1.033 0 0 1-1.085 1.089 1.064 1.064 0 0 1-1.174-1.133c-.017-.734.444-1.094 1.156-1.154" transform="translate(-34.607 -15.45)" style="fill:#b07ab4"/>
            </g>
        </g>
    </g>
</svg>
