<svg xmlns="http://www.w3.org/2000/svg" width="32.589" height="32.386" viewBox="0 0 32.589 32.386">
    <g data-name="Group 219">
        <g data-name="Group 228">
            <path data-name="Path 230" d="M13.181 142.166H1.347c-1.021 0-1.347-.33-1.347-1.366v-4.62a8.132 8.132 0 0 1 8.185-8.191h9.936a8.129 8.129 0 0 1 8.213 8.227v4.683c0 .908-.355 1.266-1.254 1.267h-11.9" transform="translate(1.001 -110.78)" style="fill:none;stroke:#b07ab4;stroke-width:2px"/>
            <path data-name="Path 231" d="M48.008 7.056a7.089 7.089 0 1 1 7.024 7.123 7.089 7.089 0 0 1-7.024-7.123" transform="translate(-40.929 .999)" style="fill:none;stroke:#b07ab4;stroke-width:2px"/>
            <path data-name="Path 232" d="M168.115 68.05a1 1 0 0 1-.993 1.015c-.526.023-1.054.024-1.58 0-.348-.016-.493.079-.471.453.029.5.018 1.011 0 1.517a1.009 1.009 0 1 1-2.016.017 20.74 20.74 0 0 1 0-1.517c.017-.349-.082-.491-.454-.47-.5.029-1.011.018-1.517 0a1.009 1.009 0 1 1-.016-2.015 20.74 20.74 0 0 1 1.517 0c.348.017.492-.081.471-.453a16.33 16.33 0 0 1 0-1.517 1.009 1.009 0 1 1 2.015-.018c.016.505.022 1.012 0 1.517-.017.346.077.493.452.472a15.71 15.71 0 0 1 1.58 0 1 1 0 0 1 1.012 1" transform="translate(-136.026 -56.27)" style="fill:#b07ab4;stroke:transparent"/>
        </g>
    </g>
</svg>
