<svg data-name="Group 172" xmlns="http://www.w3.org/2000/svg" width="62.161" height="61.884" viewBox="0 0 62.161 61.884">
    <defs>
        <clipPath id="ajtl7ozcma">
            <path data-name="Rectangle 91" style="fill:#4b0858" d="M0 0h62.161v61.884H0z"/>
        </clipPath>
    </defs>
    <g data-name="Group 171" style="clip-path:url(#ajtl7ozcma)">
        <path data-name="Path 210" d="M97.243 78.011a12.89 12.89 0 0 0 8.224 1.383 12.1 12.1 0 0 0 7.042-3.719c.541-.574.814-.493 1.321-.008a12.6 12.6 0 0 1 4.094 9.374c.023 5.86.008 11.719.006 17.579 0 1.8-.584 2.422-2.369 2.428-4.445.015-8.89 0-13.336.011-.675 0-.943.021-.91-.951.143-4.191.447-8.406-.174-12.577a11.608 11.608 0 0 0-3.185-6.148A1.46 1.46 0 0 1 97.5 83.8a10.125 10.125 0 0 0-.254-5.791" transform="translate(-55.775 -43.174)" style="fill:#4b0858"/>
        <path data-name="Path 211" d="M20.647 78.135a10.473 10.473 0 0 0-.137 5.837 1.065 1.065 0 0 1-.337 1.162 13.182 13.182 0 0 0-3.65 9.937c.13 3.143-.226 6.3.2 9.433.07.527-.293.484-.608.484-4.768 0-9.536.017-14.3-.031a1.712 1.712 0 0 1-1.768-1.9c-.014-6.3-.1-12.61.04-18.91A11.926 11.926 0 0 1 4.3 75.46c.35-.319.558-.429.969-.022 4.4 4.359 9.47 5.136 15.1 2.727a1.621 1.621 0 0 1 .271-.029" transform="translate(0 -43.117)" style="fill:#4b0858"/>
        <path data-name="Path 212" d="M58.155 122.67c-2.79 0-5.58.01-8.369 0-1.894-.008-2.476-.591-2.478-2.444 0-2.87-.009-5.741 0-8.611a9.15 9.15 0 0 1 1.651-5.1c.451-.68.723-.675 1.306-.075a10.769 10.769 0 0 0 14.5 1.3 6.2 6.2 0 0 0 1.258-1.13c.649-.846 1.065-.8 1.614.122a9.4 9.4 0 0 1 1.5 4.788c.021 2.991.014 5.984 0 8.975-.006 1.478-.644 2.159-2.13 2.174-2.951.031-5.9.009-8.854.011" transform="translate(-27.132 -60.793)" style="fill:#4b0858"/>
        <path data-name="Path 213" d="M50.118 7.345c.136-6.577 5.638-8.888 9.261-6.32a.694.694 0 0 0 .853.067c3.018-1.531 5.284-1.372 7.237.455a7.038 7.038 0 0 1 1.515 7.825 17.488 17.488 0 0 1-5.8 6.857c-3.293 2.583-3.373 2.574-6.7-.02a20.864 20.864 0 0 1-4.784-4.943 8.559 8.559 0 0 1-1.579-3.921" transform="translate(-28.746)" style="fill:#4b0858"/>
        <path data-name="Path 214" d="M21.7 52.319a9.084 9.084 0 1 1 9.364-8.792 9.058 9.058 0 0 1-9.364 8.792" transform="translate(-7.399 -19.588)" style="fill:#4b0858"/>
        <path data-name="Path 215" d="M108.476 43.1a9.087 9.087 0 1 1-9.225-8.948 9.066 9.066 0 0 1 9.225 8.948" transform="translate(-51.794 -19.587)" style="fill:#4b0858"/>
        <path data-name="Path 216" d="M70.4 79.862a7.277 7.277 0 1 1-7.3-7.31 7.283 7.283 0 0 1 7.3 7.31" transform="translate(-32.033 -41.613)" style="fill:#4b0858"/>
    </g>
</svg>
